HIERARCHY
ROOT pelvis
{
  OFFSET 0 0 0
  CHANNELS 6 Xposition Yposition Zposition Zrotation Xrotation Yrotation
  JOINT pelvis_right_femur
  {
    OFFSET -11.43119 -3.542788 0.2090856
    CHANNELS 3 Zrotation Xrotation Yrotation
    JOINT right_femur_tibia
    {
      OFFSET -1.028693 -40.73281 5
      CHANNELS 3 Zrotation Xrotation Yrotation
      JOINT right_tibia_foot
      {
        OFFSET -0.5013517 -42.05707 -5
        CHANNELS 3 Zrotation Xrotation Yrotation
        End Site
        {
          OFFSET 0 -5 10
        }
      }
    }
  }
  JOINT pelvis_left_femur
  {
    OFFSET 11.43119 -3.542788 0.2090856
    CHANNELS 3 Zrotation Xrotation Yrotation
    JOINT left_femur_tibia
    {
      OFFSET 1.028693 -40.73281 5
      CHANNELS 3 Zrotation Xrotation Yrotation
      JOINT left_tibia_foot
      {
        OFFSET 0.3200228 -42.98253 -5
        CHANNELS 3 Zrotation Xrotation Yrotation
        End Site
        {
          OFFSET 0 -5 10
        }
      }
    }
  }
  JOINT pelvis_spine1
  {
    OFFSET 0 8.64413 -3.209807
    CHANNELS 3 Zrotation Xrotation Yrotation
    JOINT spine1
    {
      OFFSET 0 29.53957 -1.762685
      CHANNELS 3 Zrotation Xrotation Yrotation
      JOINT spine2
      {
        OFFSET 0 16.36153 -0.1422377
        CHANNELS 3 Zrotation Xrotation Yrotation
        JOINT neck
        {
          OFFSET 0 11.60093 5
          CHANNELS 3 Zrotation Xrotation Yrotation
          End Site
          {
            OFFSET 0 20 0
          }
        }
      }
      JOINT right_manubrium
      {
        OFFSET -4.671311 15.89868 4
        CHANNELS 3 Zrotation Xrotation Yrotation
        JOINT right_clavicle
        {
          OFFSET -13.601 1.573642 -2.74176
          CHANNELS 3 Zrotation Xrotation Yrotation
          JOINT right_humerus
          {
            OFFSET -0.06331682 -27.72702 2.252146
            CHANNELS 3 Zrotation Xrotation Yrotation
            JOINT right_radius
            {
              OFFSET -0.5696302 -23.92083 0.4042105
              CHANNELS 3 Zrotation Xrotation Yrotation
              End Site
              {
                OFFSET 0 -15 0
              }
            }
          }
        }
      }
      JOINT left_manubrium
      {
        OFFSET 4.671311 15.89868 4
        CHANNELS 3 Zrotation Xrotation Yrotation
        JOINT left_clavicle
        {
          OFFSET 13.601 1.573642 -2.74176
          CHANNELS 3 Zrotation Xrotation Yrotation
          JOINT left_humerus
          {
            OFFSET 0.000209614 -29.01858 1.101395
            CHANNELS 3 Zrotation Xrotation Yrotation
            JOINT left_radius
            {
              OFFSET -0.2288314 -24.59216 1.790347
              CHANNELS 3 Zrotation Xrotation Yrotation
              End Site
              {
                OFFSET 0 -15 0
              }
            }
          }
        }
      }
    }
  }
}
MOTION
Frames: 7
Frame Time: 0.0416666666667
-0.03792838 48.08244 0.2536968 -2.720033 -16.37472 -1.154056 -60.61129 -63.11121 -59.74564 -180 85.03766 -180 5.547963 5.641545 -1.104892 72.25535 -52.40173 69.20147 -180 79.93948 -180 -5.103907 3.128702 -19.26818 -1.325957 20.04103 -0.007328129 8.172946 14.23289 -10.57956 -9.284986 6.12918 8.567659 8.60953 -36.5886 3.229859 19.75983 -9.001646 23.22847 -63.1363 -31.18263 11.42416 0 -72.24243 0 16.62319 2.261213 29.92565 -28.37809 -28.05493 -5.388078 52.65659 -23.31601 -23.29258 0 -79.10594 0 -10.41216 -15.06214 5.817258
-0.02606183 48.08252 0.2762388 -2.616897 -16.28994 -1.363639 -60.81075 -63.32416 -59.87597 -180 85.02965 -180 5.519617 5.677665 -1.048023 72.1974 -52.29226 69.2083 -180 79.92056 -180 -5.163512 3.065943 -19.18592 -1.341275 19.99188 -0.1446926 8.13789 14.2147 -10.68395 -9.095728 6.275043 8.733649 8.597363 -36.54507 3.515194 19.64309 -8.926105 23.39553 -62.58238 -31.4824 11.35511 0 -72.28165 0 17.0482 3.392563 31.06422 -28.44035 -27.80658 -5.629244 52.31375 -23.62727 -23.57576 0 -79.28034 0 -9.216737 -15.73143 7.264359
-0.01672434 48.09142 0.2866097 -2.581556 -16.19234 -1.55549 -60.91626 -63.50145 -59.98342 -180 85.06822 -180 5.50126 5.710781 -1.000352 72.23208 -52.22842 69.24814 -180 79.90151 -180 -5.217541 2.99672 -19.10281 -1.28199 19.96143 -0.2694696 8.09294 14.18972 -10.78091 -8.94072 6.371167 8.82926 8.506647 -36.55182 3.700105 19.49961 -8.842865 23.55084 -62.08543 -31.74632 11.28759 0 -72.31918 0 17.42661 4.407328 32.09107 -28.50046 -27.5669 -5.747302 52.06704 -23.74857 -23.66643 0 -79.27345 0 -8.028754 -16.27719 8.575466
-0.002937664 48.09123 0.2907899 -2.567866 -16.10568 -1.719341 -61.03407 -63.6353 -60.13967 -180 85.10326 -180 5.483165 5.747153 -0.9438809 72.27567 -52.22009 69.27095 -180 79.87568 -180 -5.270127 2.932028 -18.99829 -1.214023 19.92297 -0.3374958 8.077037 14.14811 -10.84383 -8.766764 6.449753 8.865493 8.379876 -36.55768 3.811634 19.38942 -8.770083 23.63673 -61.65332 -31.92675 11.14865 0 -72.36072 0 17.74046 5.306406 33.00965 -28.55817 -27.38803 -5.741766 51.94516 -23.72715 -23.53742 0 -79.25925 0 -6.942847 -16.79169 9.711829
-0.0138162 48.0882 0.2966125 -2.551493 -16.0489 -1.809699 -61.14833 -63.71012 -60.2813 -180 85.1042 -180 5.466876 5.786146 -0.8885472 72.31372 -52.23961 69.27292 -180 79.8525 -180 -5.311571 2.882949 -18.89925 -1.15837 19.88076 -0.3743306 8.072203 14.1141 -10.90566 -8.59185 6.505669 8.875422 8.220376 -36.57436 3.892558 19.30297 -8.680477 23.68136 -61.25702 -32.03427 10.97329 0 -72.41475 0 18.00274 6.111179 33.83476 -28.59822 -27.31837 -5.682951 52.01894 -23.60747 -23.16523 0 -79.22201 0 -6.044532 -17.29225 10.66762
-0.01750774 48.06989 0.3001164 -2.563498 -16.02056 -1.906229 -61.20928 -63.77416 -60.39495 -180 85.10193 -180 5.450699 5.8135 -0.8352245 72.37875 -52.2444 69.27248 -180 79.80921 -180 -5.346905 2.837048 -18.8193 -1.077586 19.88712 -0.4098508 8.042889 14.05627 -10.93466 -8.453936 6.52115 8.889987 7.996603 -36.59644 3.981379 19.17875 -8.602257 23.72512 -60.93162 -32.14375 10.81903 0 -72.47496 0 18.25159 6.828395 34.57287 -28.55839 -27.46851 -5.620535 52.39549 -23.40345 -22.39349 0 -79.03 0 -5.353912 -17.75709 11.50219
-0.02315647 48.07069 0.2975017 -2.552941 -15.96639 -2.011849 -61.27542 -63.85821 -60.49683 -180 85.12792 -180 5.431623 5.848391 -0.7643184 72.41296 -52.22188 69.29322 -180 79.80606 -180 -5.388787 2.788391 -18.72568 -0.9704312 19.91815 -0.5185351 7.965471 13.87783 -10.93679 -8.39997 6.519999 8.921909 7.682756 -36.61647 4.082941 19.02727 -8.462986 23.80889 -60.61382 -32.26643 10.77911 0 -72.50774 0 18.49336 7.491423 35.23903 -28.2317 -27.64325 -5.395104 53.0549 -23.0829 -21.46699 0 -78.95826 0 -4.837465 -18.21998 12.21838
